<?xml version="1.0" encoding="utf-8"?>
<!-- Generator: Adobe Illustrator 23.0.1, SVG Export Plug-In . SVG Version: 6.00 Build 0)  -->
<svg version="1.1" id="Layer_1" xmlns="http://www.w3.org/2000/svg" xmlns:xlink="http://www.w3.org/1999/xlink" x="0px" y="0px"
	 viewBox="0 0 765.35 765.35" style="enable-background:new 0 0 765.35 765.35;" xml:space="preserve">
<style type="text/css">
	.st0{fill:#5ABA47;}
	.st1{fill:#FFFFFF;}
</style>
<g>
	<g>
		<path class="st0" d="M470.78,604.54H19.58V110.58h451.2V604.54z M66.5,557.62h357.36V157.49H66.5V557.62z"/>
	</g>
	<g>
		<path class="st0" d="M743.31,604.54H429.1V227.11h166.09l148.12,168.07V604.54z M476.02,557.62h220.37v-144.7L574,274.03h-97.98
			V557.62z"/>
	</g>
	<g>
		<circle class="st1" cx="174.52" cy="581.08" r="67.16"/>
		<path class="st0" d="M174.52,671.7c-49.96,0-90.62-40.65-90.62-90.63c0-49.96,40.65-90.62,90.62-90.62s90.62,40.65,90.62,90.62
			C265.13,631.05,224.48,671.7,174.52,671.7z M174.52,537.38c-24.1,0-43.7,19.6-43.7,43.7s19.6,43.71,43.7,43.71
			s43.7-19.61,43.7-43.71S198.62,537.38,174.52,537.38z"/>
	</g>
	<g>
		<circle class="st1" cx="584.59" cy="581.08" r="67.16"/>
		<path class="st0" d="M584.59,671.7c-49.98,0-90.63-40.65-90.63-90.63c0-49.96,40.65-90.62,90.63-90.62
			c49.96,0,90.62,40.65,90.62,90.62C675.21,631.05,634.56,671.7,584.59,671.7z M584.59,537.38c-24.1,0-43.71,19.6-43.71,43.7
			s19.61,43.71,43.71,43.71s43.7-19.61,43.7-43.71S608.69,537.38,584.59,537.38z"/>
	</g>
	<g>
		<g>
			<path class="st0" d="M245.18,464.6c-74.48,0-135.07-60.59-135.07-135.07s60.59-135.07,135.07-135.07s135.07,60.59,135.07,135.07
				S319.65,464.6,245.18,464.6z M245.18,229.65c-55.07,0-99.88,44.81-99.88,99.88s44.81,99.88,99.88,99.88s99.88-44.81,99.88-99.88
				S300.25,229.65,245.18,229.65z"/>
		</g>
		<g>
			<path class="st0" d="M298.13,347.12h-70.55v-88.75c0-9.71,7.88-17.59,17.59-17.59s17.59,7.88,17.59,17.59v53.56h35.36
				c9.71,0,17.59,7.88,17.59,17.59C315.73,339.24,307.84,347.12,298.13,347.12z"/>
		</g>
	</g>
</g>
</svg>
