<?xml version="1.0" encoding="utf-8"?>
<!-- Generator: Adobe Illustrator 23.0.1, SVG Export Plug-In . SVG Version: 6.00 Build 0)  -->
<svg version="1.1" id="Layer_1" xmlns="http://www.w3.org/2000/svg" xmlns:xlink="http://www.w3.org/1999/xlink" x="0px" y="0px"
	 viewBox="0 0 765.35 765.35" style="enable-background:new 0 0 765.35 765.35;" xml:space="preserve">
<style type="text/css">
	.st0{fill:#5ABA47;}
	.st1{fill:#FFFFFF;}
</style>
<g>
	<g>
		<path class="st0" d="M469.6,604.54H18.39V110.58H469.6V604.54z M65.3,557.62h357.38V157.49H65.3V557.62z"/>
	</g>
	<g>
		<path class="st0" d="M742.11,604.54H427.92V227.11H594l148.1,168.07v209.36H742.11z M474.83,557.62h220.36v-144.7L572.81,274.03
			h-97.98V557.62z"/>
	</g>
	<g>
		<circle class="st1" cx="173.33" cy="581.08" r="67.16"/>
		<path class="st0" d="M173.33,671.7c-49.96,0-90.62-40.65-90.62-90.63c0-49.96,40.65-90.62,90.62-90.62s90.62,40.65,90.62,90.62
			C263.95,631.05,223.29,671.7,173.33,671.7z M173.33,537.38c-24.1,0-43.7,19.6-43.7,43.7s19.6,43.71,43.7,43.71
			s43.7-19.61,43.7-43.71S197.43,537.38,173.33,537.38z"/>
	</g>
	<g>
		<circle class="st1" cx="583.4" cy="581.08" r="67.16"/>
		<path class="st0" d="M583.41,671.7c-49.98,0-90.63-40.65-90.63-90.63c0-49.96,40.65-90.62,90.63-90.62
			c49.96,0,90.62,40.65,90.62,90.62C674.02,631.05,633.37,671.7,583.41,671.7z M583.41,537.38c-24.1,0-43.71,19.6-43.71,43.7
			s19.61,43.71,43.71,43.71c24.1,0,43.7-19.61,43.7-43.71S607.51,537.38,583.41,537.38z"/>
	</g>
</g>
</svg>
